Coordinates
version=1
nRows=13
nColumns=40
inDegrees=yes

Units are S.I. units (second, meters, Newtons, ...)
If the header above contains a line with 'inDegrees', this indicates whether rotational values are in degrees (yes) or radians (no).

endheader
time	pelvis_tilt	pelvis_list	pelvis_rotation	pelvis_tx	pelvis_ty	pelvis_tz	hip_flexion_r	hip_adduction_r	hip_rotation_r	knee_angle_r	knee_angle_r_beta	ankle_angle_r	subtalar_angle_r	mtp_angle_r	hip_flexion_l	hip_adduction_l	hip_rotation_l	knee_angle_l	knee_angle_l_beta	ankle_angle_l	subtalar_angle_l	mtp_angle_l	lumbar_extension	lumbar_bending	lumbar_rotation	arm_flex_r	arm_add_r	arm_rot_r	elbow_flex_r	pro_sup_r	wrist_flex_r	wrist_dev_r	arm_flex_l	arm_add_l	arm_rot_l	elbow_flex_l	pro_sup_l	wrist_flex_l	wrist_dev_l
     11.90000000	    -10.47410630	      1.34909856	    179.54119904	      0.25417554	      0.70178432	     -0.93788314	     43.25036827	    -42.68822913	    -10.30961477	     71.75271592	      1.25232114	     10.40053185	      0.00000000	      0.00000000	     38.03134645	    -49.73618002	     -8.69690828	     62.98325225	      1.09926513	      6.58725558	      0.00000000	      0.00000000	    -68.29040210	     -1.49711373	     -0.73954068	     45.20240376	      3.67599841	     26.41835650	      3.25490604	     10.10902715	      0.00000000	      0.00000000	     51.99728139	     -8.93409569	     77.95766913	      6.02489423	     83.59740482	      0.00000000	      0.00000000
     11.90500000	    -10.41458211	      1.39034572	    179.54098000	      0.25403547	      0.70244535	     -0.93779054	     43.12937061	    -42.68457656	    -10.55565447	     71.59104823	      1.24949951	     10.29509207	      0.00000000	      0.00000000	     37.99183293	    -49.73797207	     -8.76402156	     62.84595739	      1.09686888	      6.56078561	      0.00000000	      0.00000000	    -68.09427992	     -1.47420705	     -0.73153457	     45.08655810	      3.68554308	     26.39676453	      3.26533684	     10.11621959	      0.00000000	      0.00000000	     51.86134477	     -8.96755729	     77.95550831	      6.03822396	     83.60584120	      0.00000000	      0.00000000
     11.91000000	    -10.34749541	      1.44466258	    179.53662286	      0.25388356	      0.70308013	     -0.93784254	     42.99961281	    -42.70025656	    -10.83952151	     71.44291001	      1.24691401	     10.19328988	      0.00000000	      0.00000000	     37.94094009	    -49.73897535	     -8.78536187	     62.66739703	      1.09375241	      6.51925462	      0.00000000	      0.00000000	    -67.88537724	     -1.45883183	     -0.69518388	     44.96213470	      3.69881035	     26.37121536	      3.27561011	     10.12438529	      0.00000000	      0.00000000	     51.75094802	     -8.99734723	     77.95372344	      6.06049557	     83.61347133	      0.00000000	      0.00000000
     11.91500000	    -10.28412972	      1.47222479	    179.52780904	      0.25369945	      0.70367017	     -0.93784453	     42.89784932	    -42.73408099	    -11.08762618	     71.31533872	      1.24468747	     10.07330503	      0.00000000	      0.00000000	     37.87815137	    -49.73633965	     -8.85409700	     62.54364567	      1.09159254	      6.49505936	      0.00000000	      0.00000000	    -67.67291133	     -1.46019714	     -0.66209968	     44.84912396	      3.69282026	     26.34901819	      3.26814383	     10.12724272	      0.00000000	      0.00000000	     51.67336571	     -9.00021239	     77.95259542	      6.08422893	     83.61869975	      0.00000000	      0.00000000
     11.92000000	    -10.23820434	      1.67922410	    179.54824208	      0.25370157	      0.70433195	     -0.93765376	     42.61180985	    -42.59828454	    -11.52505454	     71.11790772	      1.24124165	     10.00162336	      0.00000000	      0.00000000	     37.95139107	    -49.73892492	     -8.47306728	     62.28914115	      1.08715060	      6.33248497	      0.00000000	      0.00000000	    -67.46946279	     -1.32009831	     -0.52057180	     44.77644475	      3.67927659	     26.30062587	      3.33183116	     10.16153988	      0.00000000	      0.00000000	     51.54341386	     -9.01442714	     77.93851438	      6.10297639	     83.62604086	      0.00000000	      0.00000000
     11.92500000	    -10.14068870	      1.69100090	    179.53969713	      0.25356740	      0.70500578	     -0.93764224	     42.53699713	    -42.63512987	    -11.76436439	     70.94582267	      1.23823820	      9.91514962	      0.00000000	      0.00000000	     37.94298406	    -49.73962300	     -8.61342561	     62.19145732	      1.08544570	      6.32795104	      0.00000000	      0.00000000	    -67.22652296	     -1.33060493	     -0.48164824	     44.66275752	      3.65232028	     26.28061157	      3.29896071	     10.16228399	      0.00000000	      0.00000000	     51.43957405	     -8.99069604	     77.94282744	      6.11367543	     83.63052508	      0.00000000	      0.00000000
     11.93000000	    -10.05598415	      1.74095301	    179.53360388	      0.25346485	      0.70567828	     -0.93761953	     42.41818653	    -42.63083248	    -12.03880703	     70.77085587	      1.23518445	      9.82831417	      0.00000000	      0.00000000	     37.91508948	    -49.73971268	     -8.67158897	     62.03623102	      1.08273649	      6.29631927	      0.00000000	      0.00000000	    -66.97064497	     -1.32497077	     -0.43386598	     44.55321798	      3.64687012	     26.26274224	      3.28987905	     10.16698891	      0.00000000	      0.00000000	     51.32270370	     -8.98091195	     77.96092126	      6.09985120	     83.63537555	      0.00000000	      0.00000000
     11.93500000	     -9.96919789	      1.78665287	    179.52160972	      0.25330987	      0.70638379	     -0.93755835	     42.30915881	    -42.63952927	    -12.31365976	     70.60273915	      1.23225026	      9.72047826	      0.00000000	      0.00000000	     37.87117144	    -49.73923999	     -8.73658817	     61.89080693	      1.08019836	      6.26703802	      0.00000000	      0.00000000	    -66.72913801	     -1.30140871	     -0.39737366	     44.45307192	      3.64396557	     26.24858760	      3.27886837	     10.16984971	      0.00000000	      0.00000000	     51.19707082	     -8.97596568	     77.96893693	      6.09326176	     83.63849188	      0.00000000	      0.00000000
     11.94000000	     -9.89053962	      1.86260786	    179.52369568	      0.25329510	      0.70713341	     -0.93747644	     42.15324431	    -42.59311277	    -12.60488760	     70.40229152	      1.22875179	      9.61836420	      0.00000000	      0.00000000	     37.87606058	    -49.74005206	     -8.73874144	     61.70181421	      1.07689981	      6.20933427	      0.00000000	      0.00000000	    -66.48314541	     -1.26818916	     -0.34185133	     44.36819762	      3.64057340	     26.23991096	      3.27860953	     10.17522951	      0.00000000	      0.00000000	     51.08581974	     -8.95904585	     77.98071120	      6.07869146	     83.63990348	      0.00000000	      0.00000000
     11.94500000	     -9.80748133	      1.92164478	    179.52008335	      0.25320658	      0.70786160	     -0.93737176	     42.02108558	    -42.56717612	    -12.88500051	     70.20606171	      1.22532693	      9.51441534	      0.00000000	      0.00000000	     37.85867507	    -49.73952082	     -8.75657462	     61.54019958	      1.07407911	      6.15748715	      0.00000000	      0.00000000	    -66.22900753	     -1.22807912	     -0.29343842	     44.26604448	      3.63172001	     26.23053867	      3.26822443	     10.17786594	      0.00000000	      0.00000000	     50.95447562	     -8.94635323	     77.99239346	      6.06816868	     83.64236935	      0.00000000	      0.00000000
     11.95000000	     -9.71558127	      1.99105822	    179.51033526	      0.25311927	      0.70863804	     -0.93733890	     41.88216838	    -42.55135464	    -13.19444952	     70.01657979	      1.22201985	      9.38929454	      0.00000000	      0.00000000	     37.82978017	    -49.74201425	     -8.78951768	     61.36076785	      1.07094743	      6.10722683	      0.00000000	      0.00000000	    -65.96197719	     -1.18977249	     -0.25575117	     44.15708012	      3.63855819	     26.22301880	      3.25775827	     10.17979106	      0.00000000	      0.00000000	     50.81646420	     -8.94708579	     78.00091934	      6.06084217	     83.64401690	      0.00000000	      0.00000000
     11.95500000	     -9.62961766	      2.05685747	    179.51158432	      0.25302640	      0.70939546	     -0.93714178	     41.73395221	    -42.51613489	    -13.48245747	     69.79839318	      1.21821177	      9.28129274	      0.00000000	      0.00000000	     37.80095321	    -49.74131591	     -8.81697547	     61.18956751	      1.06795942	      6.05457116	      0.00000000	      0.00000000	    -65.69331305	     -1.12979318	     -0.21983209	     44.05575338	      3.63167914	     26.21751888	      3.25503906	     10.18282760	      0.00000000	      0.00000000	     50.66930774	     -8.94577159	     78.00539893	      6.05462751	     83.64416788	      0.00000000	      0.00000000
     11.96000000	     -9.55140199	      2.14198455	    179.50636572	      0.25292360	      0.71017519	     -0.93701704	     41.55259312	    -42.48023250	    -13.81252418	     69.58223555	      1.21443911	      9.16598749	      0.00000000	      0.00000000	     37.77815358	    -49.74246868	     -8.82680540	     60.99860699	      1.06462653	      6.00734416	      0.00000000	      0.00000000	    -65.42249452	     -1.07661254	     -0.17164983	     43.94138626	      3.62855978	     26.21210430	      3.25207684	     10.18579942	      0.00000000	      0.00000000	     50.51593986	     -8.94695718	     78.00938221	      6.05281829	     83.64425727	      0.00000000	      0.00000000
